<svg xmlns="http://www.w3.org/2000/svg" viewBox="0 0 900 660" width="900" height="660">
<defs>
  <marker id="arr" markerWidth="10" markerHeight="7" refX="10" refY="3.5" orient="auto" fill="#545B64">
    <polygon points="0 0, 10 3.5, 0 7"/>
  </marker>
  <marker id="arr-purple" markerWidth="10" markerHeight="7" refX="10" refY="3.5" orient="auto" fill="#8C4FFF">
    <polygon points="0 0, 10 3.5, 0 7"/>
  </marker>
  <symbol id="ic-lightsail" viewBox="0 0 64 64"><g stroke="none" stroke-width="1" fill="none" fill-rule="evenodd">
    <g fill="#ED7100">
      <rect x="0" y="0" width="64" height="64"/>
    </g>
    <path d="M26,33 L28,33 L28,31 L26,31 L26,33 Z M21,33 L23,33 L23,31 L21,31 L21,33 Z M16,33 L18,33 L18,31 L16,31 L16,33 Z M11,33 L13,33 L13,31 L11,31 L11,33 Z M47.987,37.921 L49.556,37.398 L47.987,36.875 L47.464,35.307 L46.941,36.875 L45.373,37.398 L46.941,37.921 L47.464,39.489 L47.987,37.921 Z M29.617,40.66 L29.095,42.229 L27.526,42.751 L29.095,43.274 L29.617,44.843 L30.141,43.274 L31.709,42.751 L30.141,42.229 L29.617,40.66 Z M29.617,20.434 L29.095,22.003 L27.526,22.525 L29.095,23.048 L29.617,24.617 L30.141,23.048 L31.709,22.525 L30.141,22.003 L29.617,20.434 Z M32.946,31.945 C35.767,33.914 37.773,37.547 38.666,42.317 C40.316,40.08 42.684,36.14 42.684,31.945 C42.684,27.74 40.563,24.016 38.675,21.533 C37.785,26.323 35.775,29.971 32.946,31.945 L32.946,31.945 Z M30.509,32.864 C30.142,32.706 29.903,32.345 29.903,31.945 C29.903,31.545 30.142,31.183 30.509,31.026 C33.997,29.53 36.367,25.168 37.013,19.058 C37.054,18.666 37.322,18.334 37.697,18.212 C38.072,18.09 38.483,18.199 38.749,18.493 C40.965,20.946 44.684,25.956 44.684,31.945 C44.684,38.307 40.141,43.844 38.749,45.39 C38.556,45.604 38.284,45.721 38.006,45.721 C37.902,45.721 37.799,45.705 37.697,45.672 C37.321,45.55 37.053,45.218 37.012,44.826 C36.365,38.719 33.995,34.359 30.509,32.864 L30.509,32.864 Z M54,32 C54,42.477 45.477,51 35,51 C25.682,51 17.802,44.341 16.263,35.166 L18.235,34.834 C19.611,43.042 26.662,49 35,49 C44.374,49 52,41.374 52,32 C52,22.626 44.374,15 35,15 C26.662,15 19.611,20.958 18.235,29.166 L16.263,28.834 C17.802,19.659 25.682,13 35,13 C45.477,13 54,21.523 54,32 L54,32 Z" fill="#FFFFFF"/>
  </g></symbol>
  <symbol id="ic-bedrock" viewBox="0 0 64 64"><g stroke="none" stroke-width="1" fill="none" fill-rule="evenodd">
    <g fill="#01A88D">
      <rect x="0" y="0" width="64" height="64"/>
    </g>
    <g transform="translate(10.000000, 10.000000)" fill="#FFFFFF">
      <path d="M41,20.9998818 C40.448,20.9998818 40,20.5508818 40,19.9998818 C40,19.4488818 40.448,18.9998818 41,18.9998818 C41.552,18.9998818 42,19.4488818 42,19.9998818 C42,20.5508818 41.552,20.9998818 41,20.9998818 L41,20.9998818 Z M16.977,41.8478818 L13.774,40.1018818 L17.515,37.8568818 L16.485,36.1428818 L11.738,38.9908818 L7,36.4058818 L7,30.5658818 L11.515,27.8568818 L10.485,26.1428818 L6,28.8338818 L2,26.4338818 L2,22.6178818 L7.447,19.8948818 L6.553,18.1048818 L2,20.3818818 L2,17.6178818 L6.956,15.1398818 L11,17.5658818 L11,20.3818818 L7.553,22.1048818 L8.447,23.8948818 L12.003,22.1168818 L15.557,23.8768818 L16.443,22.0848818 L13,20.3798818 L13,17.5658818 L17.515,14.8568818 C17.815,14.6768818 18,14.3508818 18,13.9998818 L18,8.99988178 L16,8.99988178 L16,13.4338818 L12,15.8338818 L8,13.4338818 L8,6.58788178 L11,4.92188178 L11,10.9998818 L13,10.9998818 L13,3.81088178 L16.024,2.12988178 L21.002,4.61588178 L21.001,26.4498818 L10.463,33.1558818 L11.537,34.8438818 L21.001,28.8218818 L21,39.4338818 L16.977,41.8478818 Z M38,28.9998818 C38.552,28.9998818 39,29.4488818 39,29.9998818 C39,30.5508818 38.552,30.9998818 38,30.9998818 C37.448,30.9998818 37,30.5508818 37,29.9998818 C37,29.4488818 37.448,28.9998818 38,28.9998818 L38,28.9998818 Z M30,38.9998818 C29.448,38.9998818 29,38.5508818 29,37.9998818 C29,37.4488818 29.448,36.9998818 30,36.9998818 C30.552,36.9998818 31,37.4488818 31,37.9998818 C31,38.5508818 30.552,38.9998818 30,38.9998818 L30,38.9998818 Z M32,5.99988178 C32.552,5.99988178 33,6.44888178 33,6.99988178 C33,7.55088178 32.552,7.99988178 32,7.99988178 C31.448,7.99988178 31,7.55088178 31,6.99988178 C31,6.44888178 31.448,5.99988178 32,5.99988178 L32,5.99988178 Z M41,16.9998818 C39.698,16.9998818 38.598,17.8388818 38.184,18.9998818 L23.001,18.9998818 L23.001,14.9998818 L32,14.9998818 C32.553,14.9998818 33,14.5518818 33,13.9998818 L33,9.81588178 C34.161,9.40188178 35,8.30188178 35,6.99988178 C35,5.34588178 33.654,3.99988178 32,3.99988178 C30.346,3.99988178 29,5.34588178 29,6.99988178 C29,8.30188178 29.839,9.40188178 31,9.81588178 L31,12.9998818 L23.001,12.9998818 L23.002,3.99788178 C23.002,3.61888178 22.788,3.27288178 22.449,3.10388178 L16.447,0.104881781 C16.151,-0.0421182195 15.803,-0.0341182195 15.515,0.125881781 L6.515,5.12588178 C6.197,5.30188178 6,5.63688178 6,5.99988178 L6,13.3818818 L0.553,16.1048818 C0.214,16.2748818 0,16.6208818 0,16.9998818 L0,26.9998818 C0,27.3508818 0.185,27.6768818 0.485,27.8568818 L5,30.5658818 L5,36.9998818 C5,37.3658818 5.2,37.7028818 5.521,37.8778818 L16.521,43.8778818 C16.671,43.9588818 16.835,43.9998818 17,43.9998818 C17.179,43.9998818 17.356,43.9518818 17.515,43.8568818 L22.515,40.8568818 C22.815,40.6768818 23,40.3508818 23,39.9998818 L23,32.9998818 L29,32.9998818 L29,35.1838818 C27.839,35.5978818 27,36.6978818 27,37.9998818 C27,39.6538818 28.346,40.9998818 30,40.9998818 C31.654,40.9998818 33,39.6538818 33,37.9998818 C33,36.6978818 32.161,35.5978818 31,35.1838818 L31,31.9998818 C31,31.4478818 30.553,30.9998818 30,30.9998818 L23,30.9998818 L23.001,26.9998818 L33.586,26.9998818 L35.301,28.7148818 C35.113,29.1058818 35,29.5378818 35,29.9998818 C35,31.6538818 36.346,32.9998818 38,32.9998818 C39.654,32.9998818 41,31.6538818 41,29.9998818 C41,28.3458818 39.654,26.9998818 38,26.9998818 C37.538,26.9998818 37.106,27.1128818 36.715,27.3008818 L34.707,25.2928818 C34.52,25.1048818 34.266,24.9998818 34,24.9998818 L23.001,24.9998818 L23.001,20.9998818 L38.184,20.9998818 C38.598,22.1608818 39.698,22.9998818 41,22.9998818 C42.654,22.9998818 44,21.6538818 44,19.9998818 C44,18.3458818 42.654,16.9998818 41,16.9998818 L41,16.9998818 Z"/>
    </g>
  </g></symbol>
  <symbol id="ic-privatelink" viewBox="0 0 64 64"><g stroke="none" stroke-width="1" fill="none" fill-rule="evenodd">
    <g fill="#8C4FFF">
      <rect x="0" y="0" width="64" height="64"/>
    </g>
    <path d="M33.522,32.7371857 C34.475,33.7955054 35,35.1303409 35,36.4950162 C35,39.6978258 32.756,42.0213546 29.667,42.0213546 L23.444,42.0213546 C20.34,42.0213546 18,39.6461034 18,36.4950162 C18,33.3578544 20.29,31.0800799 23.444,31.0800799 L26.555,31.0800799 L26.555,33.0694026 L23.444,33.0694026 C21.416,33.0694026 20,34.477843 20,36.4950162 C20,38.5440186 21.448,40.032032 23.444,40.032032 L29.667,40.032032 C31.629,40.032032 33,38.5778371 33,36.4950162 C33,35.6207089 32.656,34.7573429 32.032,34.0640639 L33.522,32.7371857 Z M45,35.0587253 C45,38.7946733 41.949,41.0266933 39,41.0266933 L35.888,41.0266933 L35.888,39.0373706 L39,39.0373706 C40.965,39.0373706 43,37.5493573 43,35.0587253 C43,32.5680933 40.965,31.0800799 39,31.0800799 L32.777,31.0800799 C30.764,31.0800799 29,32.8873796 29,34.9483179 C29,35.4774777 29.364,36.1011304 29.684,36.6521727 L29.754,36.7715321 L28.022,37.7661934 L27.955,37.6498181 C27.529,36.9207313 27,36.0126055 27,34.9483179 C27,31.8280652 29.699,29.0907572 32.777,29.0907572 L39,29.0907572 C41.949,29.0907572 45,31.3227773 45,35.0587253 L45,35.0587253 Z M45.439,44.0106773 L18.561,44.0106773 C15.017,44.0076933 12.202,41.5031361 12.012,38.1849459 C12.003,38.0327627 12,37.8766008 12,37.717455 C12,33.4682618 15.059,32.0339601 16.938,31.5545334 C16.957,31.5515494 16.974,31.5485654 16.993,31.5435921 C17.494,31.4311954 17.828,30.9577366 17.763,30.4504593 C17.716,30.0744773 17.692,29.6865594 17.692,29.2966521 C17.692,25.8262787 20.19,22.0903307 23.379,20.7922977 C28.927,18.5334218 32.859,21.5014912 34.292,22.8810865 C35.455,24.0030645 36.363,25.4383608 36.991,27.1461943 C37.117,27.4873632 37.418,27.7330445 37.78,27.7877509 C38.146,27.8404679 38.502,27.6972367 38.725,27.4087849 C39.624,26.2390632 41.075,25.7477005 42.429,26.1575009 C44.041,26.6468743 45.043,28.2303752 45.18,30.501187 C45.208,30.9517686 45.536,31.3277506 45.981,31.4162754 C49.974,32.2179725 52,34.3584837 52,37.7801187 C52,43.201023 47.889,44.0106773 45.439,44.0106773 L45.439,44.0106773 Z M47.102,29.6298637 C46.726,26.9124489 45.233,24.9290942 43.013,24.2557085 C41.369,23.7563885 39.637,24.0796534 38.281,25.0763041 C37.602,23.6788049 36.732,22.4643234 35.684,21.4537475 C32.113,18.0092353 27.23,17.0742536 22.622,18.9511795 C18.671,20.5595469 15.692,25.0076724 15.692,29.2966521 C15.692,29.4806645 15.697,29.6636822 15.705,29.8457052 C13.517,30.5807599 10,32.566104 10,37.717455 C10,37.9163873 10.005,38.1093516 10.016,38.2973426 C10.265,42.6837991 13.938,45.9960214 18.56,46 L45.439,46 C47.447,46 54,45.4071818 54,37.7801187 C54,33.6254183 51.558,30.753831 47.102,29.6298637 L47.102,29.6298637 Z" fill="#FFFFFF"/>
  </g></symbol>
  <symbol id="ic-s3" viewBox="0 0 64 64"><g stroke="none" stroke-width="1" fill="none" fill-rule="evenodd">
    <g fill="#7AA116">
      <rect x="0" y="0" width="64" height="64"/>
    </g>
    <g transform="translate(10.999800, 10.000200)" fill="#FFFFFF">
      <path d="M36.759,23.948 L36.993,22.131 C39.166,23.385 39.842,24.121 40.037,24.424 C39.713,24.485 38.832,24.509 36.759,23.948 L36.759,23.948 Z M19.5,11 C9.125,11 2.382,8.488 2,6.696 L2,6.511 C2.349,5.392 8.14,2 19.5,2 C30.84,2 36.632,5.381 37,6.505 L37,6.616 C36.724,8.446 29.961,11 19.5,11 L19.5,11 Z M34.818,23.362 C30.053,21.797 23.912,18.979 21.594,17.888 C21.535,16.786 20.628,15.906 19.512,15.906 C18.358,15.906 17.418,16.845 17.418,18 C17.418,19.154 18.358,20.094 19.512,20.094 C19.969,20.094 20.389,19.942 20.733,19.693 C23.132,20.822 29.619,23.798 34.558,25.38 L32.837,38.724 C32.583,40.352 27.919,42 19.497,42 C11.072,42 6.405,40.352 6.155,38.751 L2.435,9.814 C5.945,11.915 12.749,13 19.5,13 C26.25,13 33.054,11.915 36.565,9.815 L34.818,23.362 Z M39,6.5 C39,3.431 30.661,0 19.5,0 C8.339,0 -3.55271368e-15,3.431 -3.55271368e-15,6.5 L-3.55271368e-15,7.043 L4.174,39.033 C4.875,43.516 15.123,44 19.497,44 C23.869,44 34.113,43.516 34.818,39.007 L36.501,25.947 C37.778,26.279 38.812,26.456 39.616,26.455 C40.606,26.455 41.273,26.203 41.697,25.697 C42.047,25.281 42.185,24.756 42.085,24.221 C41.857,23 40.403,21.712 37.37,20.044 L37.27,19.989 L39,7.044 L39,6.5 Z"/>
    </g>
  </g></symbol>
  <symbol id="ic-rds" viewBox="0 0 64 64"><g stroke="none" stroke-width="1" fill="none" fill-rule="evenodd">
    <g fill="#C925D1">
      <rect x="0" y="0" width="64" height="64"/>
    </g>
    <path d="M54,11 L54,19 L52,19 L52,13.414 L45.707,19.707 L44.293,18.293 L50.586,12 L45.125,12 L45.125,10 L53,10 C53.553,10 54,10.448 54,11 L54,11 Z M12,18.875 L10,18.875 L10,11 C10,10.448 10.447,10 11,10 L19,10 L19,12 L13.414,12 L19.707,18.293 L18.293,19.707 L12,13.414 L12,18.875 Z M19.707,45.707 L13.414,52 L18.875,52 L18.875,54 L11,54 C10.447,54 10,53.552 10,53 L10,45 L12,45 L12,50.586 L18.293,44.293 L19.707,45.707 Z M51.5,31.781 C51.5,29.352 48.634,26.932 43.833,25.307 L44.474,23.413 C50.21,25.354 53.5,28.404 53.5,31.781 C53.5,35.158 50.21,38.208 44.474,40.15 L43.833,38.255 C48.634,36.631 51.5,34.21 51.5,31.781 L51.5,31.781 Z M12.543,31.781 C12.543,34.105 15.224,36.46 19.715,38.081 L19.035,39.961 C13.639,38.014 10.543,35.033 10.543,31.781 C10.543,28.53 13.639,25.548 19.035,23.601 L19.715,25.482 C15.224,27.103 12.543,29.458 12.543,31.781 L12.543,31.781 Z M52,45.125 L54,45.125 L54,53 C54,53.552 53.553,54 53,54 L45,54 L45,52 L50.586,52 L44.293,45.707 L45.707,44.293 L52,50.586 L52,45.125 Z M32.022,31.402 C26.999,31.402 24.126,30.059 24,29.483 L24,26.257 C26.159,27.266 29.609,27.593 32,27.593 C34.391,27.593 37.841,27.266 40,26.257 L40,29.483 C39.894,30.057 37.051,31.402 32.022,31.402 L32.022,31.402 Z M32.022,37.13 C26.999,37.13 24.126,35.786 24,35.21 L24,31.956 C25.953,32.937 29.055,33.402 32.022,33.402 C34.973,33.402 38.055,32.938 40,31.96 L40,35.21 C39.894,35.785 37.052,37.13 32.022,37.13 L32.022,37.13 Z M32,42.268 C26.95,42.268 24.104,40.917 24,40.346 L24,37.683 C25.953,38.665 29.055,39.13 32.022,39.13 C34.973,39.13 38.055,38.666 40,37.687 L40,40.342 C39.896,40.917 37.05,42.268 32,42.268 L32,42.268 Z M32,22.193 C36.971,22.193 39.642,23.37 39.982,23.894 C39.642,24.417 36.971,25.593 32,25.593 C26.909,25.593 24.233,24.361 24,23.949 L24,23.93 C24.233,23.426 26.909,22.193 32,22.193 L32,22.193 Z M32,20.193 C28.286,20.193 22,20.973 22,23.894 L22,40.346 C22,43.041 27.184,44.268 32,44.268 C36.816,44.268 42,43.041 42,40.346 L42,23.894 C42,20.973 35.714,20.193 32,20.193 L32,20.193 Z" fill="#FFFFFF"/>
  </g></symbol>
  <symbol id="ic-opensearch" viewBox="0 0 64 64"><g stroke="none" stroke-width="1" fill="none" fill-rule="evenodd">
    <g fill="#8C4FFF">
      <rect x="0" y="0" width="64" height="64"/>
    </g>
    <path d="M35,41 C32.243,41 30,38.757 30,36 C30,33.243 32.243,31 35,31 C37.757,31 40,33.243 40,36 C40,38.757 37.757,41 35,41 L35,41 Z M35,29 C31.141,29 28,32.14 28,36 C28,39.86 31.141,43 35,43 C38.859,43 42,39.86 42,36 C42,32.14 38.859,29 35,29 L35,29 Z M49.71,48.919 C49.291,49.384 48.569,49.42 48.106,49.004 L42.543,43.985 C43.093,43.466 43.591,42.894 44.024,42.271 L49.625,47.316 C50.089,47.736 50.127,48.457 49.71,48.919 L49.71,48.919 Z M26,36 C26,31.038 30.037,27 35,27 C39.963,27 44,31.038 44,36 C44,40.962 39.963,45 35,45 C30.037,45 26,40.962 26,36 L26,36 Z M45.033,40.488 C45.649,39.116 46,37.6 46,36 C46,29.935 41.065,25 35,25 C28.935,25 24,29.935 24,36 C24,42.065 28.935,47 35,47 C37.191,47 39.23,46.349 40.947,45.24 L46.769,50.491 C47.366,51.027 48.116,51.292 48.863,51.292 C49.722,51.292 50.577,50.943 51.196,50.259 C52.349,48.975 52.246,46.99 50.965,45.832 L45.033,40.488 Z M53,17 L53,43 L51,43 L51,18 L46,18 L46,26 L44,26 L44,17 C44,16.448 44.447,16 45,16 L52,16 C52.553,16 53,16.448 53,17 L53,17 Z M40,50 L42,50 L42,53 C42,53.552 41.553,54 41,54 L34,54 C33.447,54 33,53.552 33,53 L33,49 L35,49 L35,52 L40,52 L40,50 Z M35,22 L33,22 L33,12 C33,11.448 33.447,11 34,11 L41,11 C41.553,11 42,11.448 42,12 L42,23 L40,23 L40,13 L35,13 L35,22 Z M29,48 L31,48 L31,53 C31,53.552 30.553,54 30,54 L23,54 C22.447,54 22,53.552 22,53 L22,43 L24,43 L24,52 L29,52 L29,48 Z M24,28 L22,28 L22,19 C22,18.448 22.447,18 23,18 L30,18 C30.553,18 31,18.448 31,19 L31,23 L29,23 L29,20 L24,20 L24,28 Z M13,52 L18,52 L18,26 L13,26 L13,52 Z M19,24 L12,24 C11.447,24 11,24.448 11,25 L11,53 C11,53.552 11.447,54 12,54 L19,54 C19.553,54 20,53.552 20,53 L20,25 C20,24.448 19.553,24 19,24 L19,24 Z" fill="#FFFFFF"/>
  </g></symbol>
  <symbol id="ic-iam" viewBox="0 0 64 64"><g stroke="none" stroke-width="1" fill="none" fill-rule="evenodd">
    <g fill="#DD344C">
      <rect x="0" y="0" width="64" height="64"/>
    </g>
    <path d="M12,47 L52,47 L52,18 L12,18 L12,47 Z M54,17 L54,48 C54,48.552 53.553,49 53,49 L11,49 C10.447,49 10,48.552 10,48 L10,17 C10,16.448 10.447,16 11,16 L53,16 C53.553,16 54,16.448 54,17 L54,17 Z M35,39 L47,39 L47,37 L35,37 L35,39 Z M45,35 L49,35 L49,33 L45,33 L45,35 Z M35,35 L41,35 L41,33 L35,33 L35,35 Z M22.5,37.5 C22.5,37.776 22.725,38 23,38 C23.275,38 23.5,37.776 23.5,37.5 C23.5,37.224 23.275,37 23,37 C22.725,37 22.5,37.224 22.5,37.5 L22.5,37.5 Z M25.5,37.5 C25.5,38.522 24.882,39.401 24,39.788 L24,42 L22,42 L22,39.788 C21.118,39.401 20.5,38.522 20.5,37.5 C20.5,36.122 21.621,35 23,35 C24.379,35 25.5,36.122 25.5,37.5 L25.5,37.5 Z M16,42.995 L29.995,43 L29.996,41 L27,41 L27,39 L29.997,39 L29.998,37 L27,37 L27,35 L29.999,35 L30,33.005 L16.005,33 L16,42.995 Z M18,31.001 L28.001,31.004 L28.002,26 C28.002,24.976 27.2,24.273 26.722,23.945 C25.847,23.345 24.174,23 23.002,23 L23,23 C20.873,23 18.003,24.232 18.002,26 L18,31.001 Z M14.293,44.701 C14.105,44.513 14,44.259 14,43.994 L14.005,32 C14.005,31.447 14.453,31 15.005,31 L16,31 L16.002,26 C16.003,22.911 19.876,21 23,21 L23.002,21 C24.567,21 26.653,21.473 27.854,22.295 C29.239,23.246 30.003,24.562 30.002,26 L30.001,31.005 L31,31.006 C31.266,31.006 31.52,31.111 31.707,31.299 C31.895,31.487 32,31.741 32,32.006 L31.995,44 C31.995,44.553 31.547,45 30.995,45 L15,44.994 C14.734,44.994 14.48,44.889 14.293,44.701 L14.293,44.701 Z M47,30 L49,30 L49,28 L47,28 L47,30 Z M35,30 L44,30 L44,28 L35,28 L35,30 Z" fill="#FFFFFF"/>
  </g></symbol>
  <symbol id="ic-kms" viewBox="0 0 64 64"><g stroke="none" stroke-width="1" fill="none" fill-rule="evenodd">
    <g fill="#DD344C">
      <rect x="0" y="0" width="64" height="64"/>
    </g>
    <path d="M42.8407901,41.9967832 L48.8407901,41.9967832 L48.8407901,39.9967832 L42.8407901,39.9967832 L42.8407901,41.9967832 Z M34.8407901,41.9967832 L40.8407901,41.9967832 L40.8407901,39.9967832 L34.8407901,39.9967832 L34.8407901,41.9967832 Z M26.8407901,41.9967832 L32.8407901,41.9967832 L32.8407901,39.9967832 L26.8407901,39.9967832 L26.8407901,41.9967832 Z M36.8407901,35.4967832 C36.8407901,34.6697832 37.5137901,33.9967832 38.3407901,33.9967832 C39.1687901,33.9967832 39.8407901,34.6697832 39.8407901,35.4967832 C39.8407901,36.3237832 39.1687901,36.9967832 38.3407901,36.9967832 C37.5137901,36.9967832 36.8407901,36.3237832 36.8407901,35.4967832 L36.8407901,35.4967832 Z M41.8407901,35.4967832 C41.8407901,33.5667832 40.2707901,31.9967832 38.3407901,31.9967832 C36.4117901,31.9967832 34.8407901,33.5667832 34.8407901,35.4967832 C34.8407901,37.4267832 36.4117901,38.9967832 38.3407901,38.9967832 C40.2707901,38.9967832 41.8407901,37.4267832 41.8407901,35.4967832 L41.8407901,35.4967832 Z M30.3407901,36.9967832 C29.5137901,36.9967832 28.8407901,36.3237832 28.8407901,35.4967832 C28.8407901,34.6697832 29.5137901,33.9967832 30.3407901,33.9967832 C31.1687901,33.9967832 31.8407901,34.6697832 31.8407901,35.4967832 C31.8407901,36.3237832 31.1687901,36.9967832 30.3407901,36.9967832 L30.3407901,36.9967832 Z M30.3407901,31.9967832 C28.4117901,31.9967832 26.8407901,33.5667832 26.8407901,35.4967832 C26.8407901,37.4267832 28.4117901,38.9967832 30.3407901,38.9967832 C32.2707901,38.9967832 33.8407901,37.4267832 33.8407901,35.4967832 C33.8407901,33.5667832 32.2707901,31.9967832 30.3407901,31.9967832 L30.3407901,31.9967832 Z M53.8407901,25.9967832 L53.8407901,45.9967832 C53.8407901,46.5487832 53.3937901,46.9967832 52.8407901,46.9967832 L26.8407901,46.9967832 L26.8407901,44.9967832 L51.8407901,44.9967832 L51.8407901,26.9967832 L32.8407901,26.9967832 L32.8407901,24.9967832 L52.8407901,24.9967832 C53.3937901,24.9967832 53.8407901,25.4447832 53.8407901,25.9967832 L53.8407901,25.9967832 Z M20.9037901,23.8917832 C19.8127901,23.8917832 18.9247901,23.0037832 18.9247901,21.9127832 C18.9247901,20.8217832 19.8127901,19.9337832 20.9037901,19.9337832 C21.9947901,19.9337832 22.8817901,20.8217832 22.8817901,21.9127832 C22.8817901,23.0037832 21.9947901,23.8917832 20.9037901,23.8917832 L20.9037901,23.8917832 Z M20.9037901,17.9337832 C18.7107901,17.9337832 16.9247901,19.7187832 16.9247901,21.9127832 C16.9247901,24.1067832 18.7107901,25.8917832 20.9037901,25.8917832 C23.0967901,25.8917832 24.8817901,24.1067832 24.8817901,21.9127832 C24.8817901,19.7187832 23.0967901,17.9337832 20.9037901,17.9337832 L20.9037901,17.9337832 Z M23.5337901,30.0457832 C23.1207901,30.1787832 22.8407901,30.5627832 22.8407901,30.9967832 L22.8407901,49.5767832 L20.9017901,51.4757832 L18.8407901,48.6687832 L18.8407901,46.0387832 C18.8407901,45.7467832 18.7127901,45.4677832 18.4897901,45.2777832 L16.3837901,43.4857832 L18.4897901,41.6947832 C18.7127901,41.5047832 18.8407901,41.2257832 18.8407901,40.9327832 L18.8407901,39.2307832 C18.8407901,38.9377832 18.7127901,38.6587832 18.4897901,38.4687832 L16.3837901,36.6777832 L18.4897901,34.8857832 C18.7127901,34.6957832 18.8407901,34.4167832 18.8407901,34.1237832 L18.8407901,30.9967832 C18.8407901,30.5607832 18.5587901,30.1747832 18.1427901,30.0437832 C13.7627901,28.6557832 11.2567901,24.3907832 12.1847901,19.9017832 C12.8557901,16.6557832 15.3507901,14.0537832 18.5437901,13.2707832 C21.2617901,12.6027832 24.0527901,13.1857832 26.1957901,14.8667832 C28.3377901,16.5457832 29.5647901,19.0677832 29.5647901,21.7837832 C29.5647901,25.5577832 27.1407901,28.8777832 23.5337901,30.0457832 L23.5337901,30.0457832 Z M31.5647901,21.7837832 C31.5647901,18.4497832 30.0577901,15.3537832 27.4297901,13.2927832 C24.8017901,11.2307832 21.3907901,10.5137832 18.0667901,11.3287832 C14.1297901,12.2937832 11.0517901,15.4997832 10.2257901,19.4967832 C9.15579012,24.6777832 11.9757901,29.7947832 16.8407901,31.7027832 L16.8407901,33.6627832 L14.1927901,35.9157832 C13.9697901,36.1057832 13.8407901,36.3847832 13.8407901,36.6777832 C13.8407901,36.9707832 13.9697901,37.2487832 14.1927901,37.4387832 L16.8407901,39.6927832 L16.8407901,40.4707832 L14.1927901,42.7247832 C13.9697901,42.9137832 13.8407901,43.1927832 13.8407901,43.4857832 C13.8407901,43.7787832 13.9697901,44.0577832 14.1927901,44.2477832 L16.8407901,46.5007832 L16.8407901,48.9967832 C16.8407901,49.2097832 16.9097901,49.4167832 17.0357901,49.5887832 L19.9717901,53.5887832 C20.1427901,53.8217832 20.4077901,53.9697832 20.6967901,53.9937832 C20.7237901,53.9957832 20.7507901,53.9967832 20.7777901,53.9967832 C21.0387901,53.9967832 21.2897901,53.8947832 21.4767901,53.7107832 L24.5407901,50.7107832 C24.7327901,50.5227832 24.8407901,50.2657832 24.8407901,49.9967832 L24.8407901,31.6977832 C28.8917901,30.0787832 31.5647901,26.1817832 31.5647901,21.7837832 L31.5647901,21.7837832 Z" fill="#FFFFFF"/>
  </g></symbol>
  <symbol id="ic-cloudtrail" viewBox="0 0 64 64"><g stroke="none" stroke-width="1" fill="none" fill-rule="evenodd">
    <g fill="#E7157B">
      <rect x="0" y="0" width="64" height="64"/>
    </g>
    <path d="M20,41.9738788 L23,41.9738788 L23,39.9608181 L20,39.9608181 L20,41.9738788 Z M22,37.9477575 L28,37.9477575 L28,35.9346969 L22,35.9346969 L22,37.9477575 Z M46.96,30.0636056 C46.734,27.7294618 45.556,26.0133276 43.712,25.3922984 C42.238,24.8970855 40.629,25.1990446 39.351,26.1361243 C38.666,24.6927599 37.688,23.1115007 36.702,22.1331533 C33.472,18.9253412 29.741,18.1754761 25.616,19.9077148 C22.259,21.3118245 19.389,25.410416 19.036,29.1396108 C17.19,29.7938555 15.008,31.2412461 14.074,33.5411678 L15.926,34.3021047 C16.653,32.5114873 18.62,31.288553 20.247,30.8708429 C20.69,30.757105 21,30.3554994 21,29.895515 C21,26.8195584 23.566,22.9454232 26.385,21.7657697 C29.789,20.3354901 32.623,20.9092124 35.298,23.5664524 C36.359,24.6192831 37.535,26.7611796 38.06,28.2236682 C38.184,28.5719277 38.488,28.8225537 38.852,28.8779129 C39.222,28.9372982 39.579,28.783299 39.799,28.4873791 C40.616,27.3942872 41.929,26.9181984 43.078,27.3016864 C44.3,27.7123508 45,29.0248663 45,30.9020453 C45,31.3942387 45.354,31.8139618 45.836,31.8944842 C49.926,32.5789248 52,34.6151357 52,37.9477575 C52,43.7806007 46.611,43.9829133 46,43.9869394 L29,43.9869394 L29,46 L46,46 C48.767,46 54,44.3170813 54,37.9477575 C54,33.8421204 51.509,31.0661098 46.96,30.0636056 L46.96,30.0636056 Z M22,46 L26,46 L26,43.9869394 L22,43.9869394 L22,46 Z M25,41.9738788 L36,41.9738788 L36,39.9608181 L25,39.9608181 L25,41.9738788 Z M11,41.9738788 L18,41.9738788 L18,39.9608181 L11,39.9608181 L11,41.9738788 Z M13,37.9477575 L19,37.9477575 L19,35.9346969 L13,35.9346969 L13,37.9477575 Z M14,46 L20,46 L20,43.9869394 L14,43.9869394 L14,46 Z M10,46 L12,46 L12,43.9869394 L10,43.9869394 L10,46 Z" fill="#FFFFFF"/>
  </g></symbol>
  <symbol id="ic-guardduty" viewBox="0 0 64 64"><g stroke="none" stroke-width="1" fill="none" fill-rule="evenodd">
    <g fill="#DD344C">
      <rect x="0" y="0" width="64" height="64"/>
    </g>
    <path d="M36,34.3505534 C35.967,36.2315962 35.389,38.4306462 33,38.9036569 L33,25.8303598 L36,27.0763881 L36,34.3505534 Z M28,34.3395532 L28,27.0763881 L31,25.8303598 L31,38.8926567 C28.242,38.3076434 28,35.3245756 28,34.3395532 L28,34.3395532 Z M31.616,23.4083047 L26.616,25.4853519 C26.243,25.6403555 26,26.0043637 26,26.4083729 L26,34.3395532 C26,37.412623 27.571,41.0007046 32,41.0007046 C35.685,41.0007046 37.927,38.5276484 38,34.3685538 L38,26.4083729 C38,26.0043637 37.757,25.6403555 37.384,25.4853519 L32.384,23.4083047 C32.138,23.3063024 31.862,23.3063024 31.616,23.4083047 L31.616,23.4083047 Z M40,34.3685538 C40,34.7205618 39.909,43.00075 32,43.00075 C24.124,43.00075 24.001,34.6915612 24,34.3395532 L24,24.4063274 L32,21.0832519 L40,24.4063274 L40,34.3685538 Z M41.384,22.8152913 L32.384,19.0772063 C32.138,18.974204 31.862,18.974204 31.616,19.0772063 L22.616,22.8152913 C22.243,22.9702948 22,23.3343031 22,23.7383122 L22,34.3395532 C22,38.027637 24.09,45.0007955 32,45.0007955 C39.91,45.0007955 42,38.0456374 42,34.3685538 L42,23.7383122 C42,23.3343031 41.757,22.9702948 41.384,22.8152913 L41.384,22.8152913 Z M52,35.1155708 L49.572,34.9765676 C49.102,34.948567 48.647,35.2775745 48.54,35.7555854 C48.117,37.630628 47.381,39.4096684 46.352,41.0427055 C46.091,41.4557149 46.167,41.9967272 46.531,42.3227346 L48.345,43.9397714 L43.939,48.3458715 L42.327,46.5378304 C42,46.1708221 41.458,46.0968204 41.047,46.3578263 C39.416,47.3878497 37.636,48.1258665 35.754,48.5508762 C35.277,48.6588786 34.948,49.0958885 34.977,49.5838996 L35.115,51.9999545 L28.885,51.9999545 L29.023,49.5808996 C29.052,49.0938885 28.723,48.6568786 28.246,48.5488761 C26.37,48.1248665 24.59,47.3868497 22.956,46.3548262 C22.543,46.0928203 22.001,46.166822 21.676,46.5348303 L20.061,48.3458715 L15.655,43.9397714 L17.465,42.3267347 C17.83,42.0007273 17.906,41.458715 17.646,41.0457056 C16.617,39.4166686 15.881,37.6366281 15.457,35.7555854 C15.349,35.2775745 14.877,34.948567 14.425,34.9765676 L12,35.1155708 L12,28.8854292 L14.432,29.0234324 C14.877,29.0394327 15.355,28.7234255 15.464,28.2464147 C15.888,26.3733721 16.626,24.5973318 17.656,22.9662947 C17.917,22.5522853 17.841,22.011273 17.477,21.6852656 L15.655,20.0602286 L20.061,15.6551285 L21.685,17.4751699 C22.009,17.8401782 22.553,17.9141799 22.964,17.655174 C24.594,16.6281506 26.37,15.8921339 28.246,15.4691243 C28.723,15.3611218 29.052,14.9251119 29.023,14.4361008 L28.885,12.0000455 L35.115,12.0000455 L34.977,14.4381009 C34.948,14.927112 35.277,15.3631219 35.754,15.4711243 C37.628,15.895134 39.404,16.6311507 41.033,17.6591741 C41.444,17.91918 41.987,17.8431783 42.312,17.47917 L43.939,15.6551285 L48.345,20.0602286 L46.526,21.6822655 C46.162,22.0072729 46.086,22.5492852 46.347,22.9622946 C47.377,24.5923316 48.114,26.3703721 48.538,28.2464147 C48.645,28.7234255 49.102,29.0394327 49.57,29.0234324 L52,28.8854292 L52,35.1155708 Z M53.687,27.0993886 C53.487,26.9113843 53.212,26.8113821 52.943,26.8283825 L50.283,26.9793859 C49.866,25.4563513 49.261,23.9973181 48.477,22.6232869 L50.467,20.8482466 C50.672,20.6652424 50.793,20.4062365 50.801,20.1302302 C50.809,19.855224 50.702,19.5892179 50.508,19.3952135 L44.605,13.4930794 C44.411,13.298075 44.145,13.1850724 43.87,13.2000727 C43.595,13.2080729 43.336,13.3290757 43.152,13.5340803 L41.371,15.5301257 C39.999,14.7471079 38.541,14.1430942 37.021,13.7260847 L37.172,11.057024 C37.187,10.7820178 37.09,10.5130117 36.9,10.3130071 C36.712,10.1130026 36.449,10 36.174,10 L27.826,10 C27.551,10 27.288,10.1130026 27.1,10.3130071 C26.91,10.5130117 26.812,10.7820178 26.828,11.057024 L26.979,13.7240846 C25.458,14.1400941 23.999,14.7441078 22.626,15.5261256 L20.848,13.5340803 C20.664,13.3290757 20.405,13.2080729 20.13,13.2000727 C19.861,13.1870724 19.589,13.298075 19.395,13.4930794 L13.492,19.3952135 C13.298,19.5892179 13.191,19.855224 13.199,20.1302302 C13.207,20.4052365 13.328,20.6652424 13.533,20.8482466 L15.527,22.626287 C14.742,24.0003182 14.137,25.4583513 13.72,26.9793859 L11.057,26.8283825 C10.785,26.8103821 10.513,26.9113843 10.313,27.0993886 C10.113,27.2883929 10,27.5513989 10,27.8264051 L10,36.1735949 C10,36.4486011 10.113,36.7116071 10.313,36.9006114 C10.513,37.0896157 10.786,37.1876179 11.057,37.1726176 L13.712,37.0206141 C14.128,38.5476488 14.733,40.009682 15.517,41.3847133 L13.534,43.1517534 C13.328,43.3347576 13.207,43.5947635 13.199,43.8697698 C13.191,44.144776 13.298,44.4117821 13.492,44.6057865 L19.395,50.5079206 C19.589,50.7029251 19.858,50.8219278 20.13,50.8009273 C20.405,50.7929271 20.665,50.6719244 20.848,50.4669197 L22.617,48.4838746 C23.994,49.2698925 25.455,49.8759063 26.979,50.2939158 L26.828,52.942976 C26.812,53.2179822 26.91,53.4869883 27.099,53.6869929 C27.288,53.8869974 27.551,54 27.826,54 L36.174,54 C36.449,54 36.712,53.8869974 36.901,53.6869929 C37.09,53.4869883 37.187,53.2179822 37.172,52.942976 L37.021,50.2959158 C38.548,49.8779063 40.011,49.2718925 41.386,48.4868747 L43.152,50.4669197 C43.335,50.6719244 43.595,50.7929271 43.87,50.8009273 C44.147,50.8239278 44.411,50.7029251 44.605,50.5079206 L50.508,44.6057865 C50.702,44.4117821 50.809,44.144776 50.801,43.8707698 C50.793,43.5947635 50.672,43.3357576 50.467,43.1527535 L48.48,41.3807132 C49.265,40.0046819 49.869,38.5436487 50.285,37.0206141 L52.943,37.1726176 C53.211,37.1866179 53.487,37.0896157 53.687,36.9006114 C53.887,36.7116071 54,36.4486011 54,36.1735949 L54,27.8264051 C54,27.5513989 53.887,27.2883929 53.687,27.0993886 L53.687,27.0993886 Z" fill="#FFFFFF"/>
  </g></symbol>
  <symbol id="ic-direct-connect" viewBox="0 0 64 64"><g stroke="none" stroke-width="1" fill="none" fill-rule="evenodd">
    <g fill="#8C4FFF">
      <rect x="0" y="0" width="64" height="64"/>
    </g>
    <path d="M24.3189526,48.2672241 L37.9388098,48.2672241 L37.9388098,43.5301039 C37.9388098,43.2439154 37.5847616,42.99275 37.1797063,42.99275 L25.0780561,42.99275 C24.6730009,42.99275 24.3189526,43.2439154 24.3189526,43.5301039 L24.3189526,48.2672241 Z M42.5424376,51.1050932 L42.5424376,54 L40.5421648,54 L40.5421648,51.1050932 C40.5421648,50.6017617 40.2591262,50.2685422 40.0731009,50.2685422 L22.1846615,50.2685422 C21.9986362,50.2685422 21.7155976,50.6017617 21.7155976,51.1050932 L21.7155976,54 L19.7153248,54 L19.7153248,51.1050932 C19.7153248,49.5400624 20.8234759,48.2672241 22.1846615,48.2672241 L22.3186798,48.2672241 L22.3186798,43.5301039 C22.3186798,42.1301819 23.5558485,40.9914318 25.0780561,40.9914318 L37.1797063,40.9914318 C38.7019139,40.9914318 39.9390826,42.1301819 39.9390826,43.5301039 L39.9390826,48.2672241 L40.0731009,48.2672241 C41.4342865,48.2672241 42.5424376,49.5400624 42.5424376,51.1050932 L42.5424376,51.1050932 Z M35.9975451,30.9027868 C36.8816657,30.9027868 37.5997636,30.183313 37.5997636,29.2987303 C37.5997636,28.4141477 36.8816657,27.6946738 35.9975451,27.6946738 C35.1134246,27.6946738 34.3933264,28.4141477 34.3933264,29.2987303 C34.3933264,30.183313 35.1134246,30.9027868 35.9975451,30.9027868 L35.9975451,30.9027868 Z M34.9974087,39.9907727 L34.9974087,32.7450002 C33.4982043,32.3087129 32.3930536,30.9378099 32.3930536,29.2987303 C32.3930536,27.3104207 34.009274,25.6933556 35.9975451,25.6933556 C37.983816,25.6933556 39.6000364,27.3104207 39.6000364,29.2987303 C39.6000364,30.9378099 38.4958858,32.3087129 36.9976815,32.7450002 L36.9976815,39.9907727 L34.9974087,39.9907727 Z M32.5490749,23.220727 C32.5490749,22.3361444 31.830977,21.6166705 30.9468564,21.6166705 C30.0627358,21.6166705 29.3426376,22.3361444 29.3426376,23.220727 C29.3426376,24.1053096 30.0627358,24.8247835 30.9468564,24.8247835 C31.830977,24.8247835 32.5490749,24.1053096 32.5490749,23.220727 L32.5490749,23.220727 Z M34.5493476,23.220727 C34.5493476,24.8387928 33.4722008,26.1946858 32.0040005,26.6499857 L32.0040005,39.9907727 L30.0037278,39.9907727 L30.0037278,26.6850088 C28.4745193,26.2677339 27.3423649,24.8798198 27.3423649,23.220727 C27.3423649,21.2324174 28.9595854,19.6153523 30.9468564,19.6153523 C32.9331272,19.6153523 34.5493476,21.2324174 34.5493476,23.220727 L34.5493476,23.220727 Z M25.9231713,27.6946738 C25.0390508,27.6946738 24.3189526,28.4141477 24.3189526,29.2987303 C24.3189526,30.183313 25.0390508,30.9027868 25.9231713,30.9027868 C26.8062918,30.9027868 27.5253898,30.183313 27.5253898,29.2987303 C27.5253898,28.4141477 26.8062918,27.6946738 25.9231713,27.6946738 L25.9231713,27.6946738 Z M25.9231713,25.6933556 C27.9094422,25.6933556 29.5256626,27.3104207 29.5256626,29.2987303 C29.5256626,30.9378099 28.421512,32.3087129 26.9233077,32.7450002 L26.9233077,39.9907727 L24.923035,39.9907727 L24.923035,32.7450002 C23.4228304,32.3087129 22.3186798,30.9378099 22.3186798,29.2987303 C22.3186798,27.3104207 23.9349002,25.6933556 25.9231713,25.6933556 L25.9231713,25.6933556 Z M54,29.8190731 C54,35.9351014 49.3573669,38.1135363 45.0127745,38.1135363 L38.9979543,38.1135363 L38.9979543,36.1122181 L45.0127745,36.1122181 C46.651998,36.1122181 51.9997272,35.6579189 51.9997272,29.8190731 C51.9997272,26.4328427 49.9334455,24.2994375 45.8578897,23.4808984 C45.412829,23.3918397 45.0837842,23.0135906 45.0567805,22.5592913 C44.8617539,19.2621196 42.9624949,18.0923492 41.394281,18.0923492 C40.338137,18.0923492 39.3470019,18.597682 38.6749102,19.4772613 C38.4548802,19.7674525 38.0978315,19.918552 37.7317816,19.8605138 C37.3707324,19.8064782 37.067691,19.5593154 36.9416739,19.21709 C36.2925854,17.4539287 35.3654589,15.9569427 34.2603082,14.8882387 C32.8421148,13.5083299 28.956585,10.5473796 23.4548348,12.8028652 C20.3464109,14.0757036 17.8190662,17.9122305 17.8190662,21.3544978 C17.8190662,21.7427535 17.8420694,22.1310093 17.8890758,22.5072571 C17.9520844,23.0115893 17.6280402,23.481899 17.1339728,23.6029788 C15.2167114,24.0712872 12.0002728,25.4942245 12.0002728,29.7590335 C12.0002728,29.9151363 12.0082739,30.0712391 12.0162749,30.2283426 C12.1982998,33.4704781 15.2637178,36.1122181 18.8492067,36.1122181 L22.97977,36.1122181 L22.97977,38.1135363 L18.8492067,38.1135363 C14.2205755,38.1135363 10.2590353,34.624238 10.0190026,30.3364138 C10.0080011,30.1382833 10,29.9481581 10,29.7590335 C10,25.9815454 12.1622949,23.0956446 15.8317952,21.8948537 C15.822794,21.7147351 15.8187935,21.5346164 15.8187935,21.3544978 C15.8187935,17.100696 18.8392053,12.5306859 22.6967314,10.9506452 C27.2723553,9.07440943 32.1160158,10.0100257 35.6534982,13.4512923 C36.6606355,14.4269349 37.5387553,15.6827621 38.2318498,17.1327171 C39.1469746,16.4592735 40.2441242,16.091031 41.394281,16.091031 C43.8676183,16.091031 46.4649725,17.8271745 46.9810429,21.6837146 C51.5146611,22.8194627 54,25.6873517 54,29.8190731 L54,29.8190731 Z" fill="#FFFFFF"/>
  </g></symbol>

</defs>

<rect width="900" height="620" fill="#FFFFFF"/>

<!-- Title -->
<text x="450" y="30" text-anchor="middle" font-family="Amazon Ember, Helvetica Neue, Arial, sans-serif" font-size="20" font-weight="bold" fill="#232F3E">AWS Private AI Agent Architecture</text>
<text x="450" y="50" text-anchor="middle" font-family="Amazon Ember, Helvetica Neue, Arial, sans-serif" font-size="12" fill="#666666">Secure, compliant AI agent deployment — data never leaves AWS VPC</text>

<!-- ═══ AWS Cloud boundary ═══ -->
<rect x="24" y="66" width="856" height="370" rx="6" fill="none" stroke="#232F3E" stroke-width="2"/>
<rect x="24" y="66" width="96" height="22" rx="4" fill="#232F3E"/>
<text x="36" y="81" font-family="Amazon Ember, Helvetica Neue, Arial, sans-serif" font-size="10" font-weight="bold" fill="#FFFFFF">AWS Cloud</text>

<!-- ═══ VPC boundary ═══ -->
<rect x="44" y="98" width="600" height="294" rx="4" fill="none" stroke="#7AA116" stroke-width="1.5"/>
<rect x="44" y="98" width="102" height="20" rx="4 4 0 0" fill="#7AA116"/>
<text x="56" y="112" font-family="Amazon Ember, Helvetica Neue, Arial, sans-serif" font-size="9" font-weight="bold" fill="#FFFFFF">VPC (Private)</text>

<!-- ── Agent Runtime box ── -->
<rect x="62" y="128" width="200" height="116" rx="4" fill="#E8F5E9" fill-opacity="0.5" stroke="#7AA116" stroke-width="1"/>
<text x="162" y="144" text-anchor="middle" font-family="Amazon Ember, Helvetica Neue, Arial, sans-serif" font-size="10" font-weight="bold" fill="#7AA116">Agent Runtime</text>

<use href="#ic-lightsail" x="88" y="152" width="44" height="44"/>
<text x="110" y="208" text-anchor="middle" font-family="Amazon Ember, Helvetica Neue, Arial, sans-serif" font-size="9" fill="#232F3E">Lightsail</text>
<text x="110" y="219" text-anchor="middle" font-family="Amazon Ember, Helvetica Neue, Arial, sans-serif" font-size="8" fill="#666" font-style="italic">OpenClaw</text>

<use href="#ic-privatelink" x="180" y="156" width="34" height="34"/>
<text x="197" y="200" text-anchor="middle" font-family="Amazon Ember, Helvetica Neue, Arial, sans-serif" font-size="8" fill="#8C4FFF">VPC Endpoint</text>

<!-- MCP label + targets -->
<text x="162" y="234" text-anchor="middle" font-family="Amazon Ember, Helvetica Neue, Arial, sans-serif" font-size="8" fill="#666" font-style="italic">MCP Servers</text>

<!-- ── Model Inference box ── -->
<rect x="296" y="128" width="156" height="116" rx="4" fill="#E0F7F5" fill-opacity="0.5" stroke="#01A88D" stroke-width="1"/>
<text x="374" y="144" text-anchor="middle" font-family="Amazon Ember, Helvetica Neue, Arial, sans-serif" font-size="10" font-weight="bold" fill="#01A88D">Model Inference</text>

<use href="#ic-bedrock" x="350" y="156" width="44" height="44"/>
<text x="372" y="212" text-anchor="middle" font-family="Amazon Ember, Helvetica Neue, Arial, sans-serif" font-size="9" fill="#232F3E">Amazon Bedrock</text>
<text x="372" y="223" text-anchor="middle" font-family="Amazon Ember, Helvetica Neue, Arial, sans-serif" font-size="8" fill="#01A88D" font-style="italic">Claude via PrivateLink</text>

<!-- ── Data Layer box ── -->
<rect x="62" y="256" width="390" height="120" rx="4" fill="#E3F2FD" fill-opacity="0.5" stroke="#147EBA" stroke-width="1"/>
<text x="257" y="274" text-anchor="middle" font-family="Amazon Ember, Helvetica Neue, Arial, sans-serif" font-size="10" font-weight="bold" fill="#147EBA">Data Layer — Enterprise Data Never Leaves VPC</text>

<use href="#ic-s3" x="82" y="284" width="40" height="40"/>
<text x="102" y="336" text-anchor="middle" font-family="Amazon Ember, Helvetica Neue, Arial, sans-serif" font-size="9" fill="#232F3E">Amazon S3</text>
<text x="102" y="347" text-anchor="middle" font-family="Amazon Ember, Helvetica Neue, Arial, sans-serif" font-size="8" fill="#666" font-style="italic">Documents</text>

<use href="#ic-opensearch" x="182" y="284" width="40" height="40"/>
<text x="202" y="336" text-anchor="middle" font-family="Amazon Ember, Helvetica Neue, Arial, sans-serif" font-size="9" fill="#232F3E">OpenSearch</text>
<text x="202" y="347" text-anchor="middle" font-family="Amazon Ember, Helvetica Neue, Arial, sans-serif" font-size="8" fill="#666" font-style="italic">Knowledge Base</text>

<use href="#ic-rds" x="282" y="284" width="40" height="40"/>
<text x="302" y="336" text-anchor="middle" font-family="Amazon Ember, Helvetica Neue, Arial, sans-serif" font-size="9" fill="#232F3E">Amazon RDS</text>
<text x="302" y="347" text-anchor="middle" font-family="Amazon Ember, Helvetica Neue, Arial, sans-serif" font-size="8" fill="#666" font-style="italic">Enterprise DB</text>

<use href="#ic-kms" x="382" y="284" width="40" height="40"/>
<text x="402" y="336" text-anchor="middle" font-family="Amazon Ember, Helvetica Neue, Arial, sans-serif" font-size="9" fill="#232F3E">AWS KMS</text>
<text x="402" y="347" text-anchor="middle" font-family="Amazon Ember, Helvetica Neue, Arial, sans-serif" font-size="8" fill="#666" font-style="italic">Encryption</text>

<!-- Arrows: Runtime → Bedrock -->
<line x1="262" y1="180" x2="292" y2="180" stroke="#545B64" stroke-width="1.5" marker-end="url(#arr)"/>
<text x="277" y="174" text-anchor="middle" font-family="Amazon Ember, Helvetica Neue, Arial, sans-serif" font-size="8" fill="#666">API</text>

<!-- Arrow: Runtime → Data (MCP) -->
<line x1="162" y1="244" x2="162" y2="256" stroke="#888" stroke-width="1.5" stroke-dasharray="4,3" marker-end="url(#arr)"/>
<text x="175" y="254" font-family="Amazon Ember, Helvetica Neue, Arial, sans-serif" font-size="8" fill="#888">MCP</text>

<!-- ═══ Security & Observability panel ═══ -->
<rect x="668" y="98" width="196" height="294" rx="4" fill="none" stroke="#DD344C" stroke-width="1" stroke-dasharray="5,3"/>
<text x="766" y="118" text-anchor="middle" font-family="Amazon Ember, Helvetica Neue, Arial, sans-serif" font-size="10" font-weight="bold" fill="#DD344C">Security &amp; Observability</text>

<use href="#ic-cloudtrail" x="686" y="132" width="40" height="40"/>
<text x="706" y="182" text-anchor="middle" font-family="Amazon Ember, Helvetica Neue, Arial, sans-serif" font-size="9" fill="#232F3E">CloudTrail</text>
<text x="706" y="193" text-anchor="middle" font-family="Amazon Ember, Helvetica Neue, Arial, sans-serif" font-size="8" fill="#666" font-style="italic">Audit Logs</text>

<use href="#ic-guardduty" x="798" y="132" width="40" height="40"/>
<text x="818" y="182" text-anchor="middle" font-family="Amazon Ember, Helvetica Neue, Arial, sans-serif" font-size="9" fill="#232F3E">GuardDuty</text>
<text x="818" y="193" text-anchor="middle" font-family="Amazon Ember, Helvetica Neue, Arial, sans-serif" font-size="8" fill="#666" font-style="italic">Threat Detection</text>

<use href="#ic-iam" x="686" y="210" width="40" height="40"/>
<text x="706" y="260" text-anchor="middle" font-family="Amazon Ember, Helvetica Neue, Arial, sans-serif" font-size="9" fill="#232F3E">AWS IAM</text>
<text x="706" y="271" text-anchor="middle" font-family="Amazon Ember, Helvetica Neue, Arial, sans-serif" font-size="8" fill="#666" font-style="italic">Access Control</text>

<!-- Arrow: VPC → Security -->
<path d="M 644,200 L 664,200" fill="none" stroke="#DD344C" stroke-width="1" stroke-dasharray="3,3" marker-end="url(#arr)"/>
<text x="654" y="194" text-anchor="middle" font-family="Amazon Ember, Helvetica Neue, Arial, sans-serif" font-size="7" fill="#DD344C">Logs</text>

<!-- ═══ Enterprise Users (bottom) ═══ -->
<g transform="translate(50,460)">
  <circle cx="20" cy="12" r="10" fill="none" stroke="#232F3E" stroke-width="1.5"/>
  <path d="M4,38 C4,28 10,23 20,23 C30,23 36,28 36,38" fill="none" stroke="#232F3E" stroke-width="1.5"/>
</g>
<text x="70" y="510" text-anchor="middle" font-family="Amazon Ember, Helvetica Neue, Arial, sans-serif" font-size="10" fill="#232F3E">Enterprise Users</text>

<!-- Direct Connect -->
<use href="#ic-direct-connect" x="160" y="470" width="40" height="40"/>
<text x="180" y="520" text-anchor="middle" font-family="Amazon Ember, Helvetica Neue, Arial, sans-serif" font-size="9" fill="#8C4FFF">Direct Connect</text>

<!-- Arrow: Users → Direct Connect → VPC -->
<line x1="96" y1="488" x2="156" y2="488" stroke="#8C4FFF" stroke-width="1.5" stroke-dasharray="4,3" marker-end="url(#arr-purple)"/>
<path d="M 200,470 L 200,450 L 162,450 L 162,436" fill="none" stroke="#8C4FFF" stroke-width="1.5" stroke-dasharray="4,3" marker-end="url(#arr-purple)"/>
<text x="140" y="458" font-family="Amazon Ember, Helvetica Neue, Arial, sans-serif" font-size="8" fill="#8C4FFF" font-style="italic">Private circuit</text>

<!-- ═══ Benefits ═══ -->
<rect x="24" y="540" width="856" height="100" rx="6" fill="#F0FDF4" stroke="#86EFAC" stroke-width="1"/>
<text x="44" y="562" font-family="Amazon Ember, Helvetica Neue, Arial, sans-serif" font-size="12" font-weight="bold" fill="#16A34A">Key Benefits</text>

<text x="44" y="624" font-family="Amazon Ember, Helvetica Neue, Arial, sans-serif" font-size="11" fill="#374151">✓ All data stays within AWS VPC — no internet traversal</text>
<text x="480" y="624" font-family="Amazon Ember, Helvetica Neue, Arial, sans-serif" font-size="11" fill="#374151">✓ IAM least-privilege per agent</text>

<text x="44" y="604" font-family="Amazon Ember, Helvetica Neue, Arial, sans-serif" font-size="11" fill="#374151">✓ CloudTrail records every API call with identity + timestamp</text>
<text x="480" y="604" font-family="Amazon Ember, Helvetica Neue, Arial, sans-serif" font-size="11" fill="#374151">✓ KMS encryption at rest</text>

<text x="44" y="624" font-family="Amazon Ember, Helvetica Neue, Arial, sans-serif" font-size="11" fill="#374151">✓ Same agent capabilities (MCP plugins), self-hosted runtime</text>
<text x="480" y="624" font-family="Amazon Ember, Helvetica Neue, Arial, sans-serif" font-size="11" fill="#374151">✓ GuardDuty threat detection</text>

<!-- ═══ Watermark ═══ -->
<text x="870" y="652" text-anchor="end" font-family="Amazon Ember, Helvetica Neue, Arial, sans-serif" font-size="11" fill="#AAAAAA">jesamkim.github.io</text>

</svg>